<?xml version="1.0" encoding="UTF-8" standalone="no"?>
<!-- Created with Inkscape (http://www.inkscape.org/) -->

<svg
   xmlns:dc="http://purl.org/dc/elements/1.1/"
   xmlns:cc="http://creativecommons.org/ns#"
   xmlns:rdf="http://www.w3.org/1999/02/22-rdf-syntax-ns#"
   xmlns:svg="http://www.w3.org/2000/svg"
   xmlns="http://www.w3.org/2000/svg"
   xmlns:xlink="http://www.w3.org/1999/xlink"
   xmlns:sodipodi="http://sodipodi.sourceforge.net/DTD/sodipodi-0.dtd"
   xmlns:inkscape="http://www.inkscape.org/namespaces/inkscape"
   width="744.09448819"
   height="1052.3622047"
   id="svg2"
   version="1.1"
   inkscape:version="0.47 r22583"
   sodipodi:docname="arm.svg">
  <defs
     id="defs4">
    <marker
       inkscape:stockid="Arrow1Lend"
       orient="auto"
       refY="0.0"
       refX="0.0"
       id="Arrow1Lend"
       style="overflow:visible;">
      <path
         id="path3598"
         d="M 0.0,0.0 L 5.0,-5.0 L -12.5,0.0 L 5.0,5.0 L 0.0,0.0 z "
         style="fill-rule:evenodd;stroke:#000000;stroke-width:1.0pt;marker-start:none;"
         transform="scale(0.8) rotate(180) translate(12.5,0)" />
    </marker>
    <marker
       inkscape:stockid="Arrow1Lstart"
       orient="auto"
       refY="0.0"
       refX="0.0"
       id="Arrow1Lstart"
       style="overflow:visible">
      <path
         id="path3595"
         d="M 0.0,0.0 L 5.0,-5.0 L -12.5,0.0 L 5.0,5.0 L 0.0,0.0 z "
         style="fill-rule:evenodd;stroke:#000000;stroke-width:1.0pt;marker-start:none"
         transform="scale(0.8) translate(12.5,0)" />
    </marker>
    <marker
       inkscape:stockid="DotL"
       orient="auto"
       refY="0.0"
       refX="0.0"
       id="DotL"
       style="overflow:visible">
      <path
         id="path3657"
         d="M -2.5,-1.0 C -2.5,1.7600000 -4.7400000,4.0 -7.5,4.0 C -10.260000,4.0 -12.5,1.7600000 -12.5,-1.0 C -12.5,-3.7600000 -10.260000,-6.0 -7.5,-6.0 C -4.7400000,-6.0 -2.5,-3.7600000 -2.5,-1.0 z "
         style="fill-rule:evenodd;stroke:#000000;stroke-width:1.0pt;marker-start:none;marker-end:none"
         transform="scale(0.8) translate(7.4, 1)" />
    </marker>
    <inkscape:perspective
       sodipodi:type="inkscape:persp3d"
       inkscape:vp_x="0 : 526.18109 : 1"
       inkscape:vp_y="0 : 1000 : 0"
       inkscape:vp_z="744.09448 : 526.18109 : 1"
       inkscape:persp3d-origin="372.04724 : 350.78739 : 1"
       id="perspective10" />
    <inkscape:perspective
       id="perspective4232"
       inkscape:persp3d-origin="0.5 : 0.33333333 : 1"
       inkscape:vp_z="1 : 0.5 : 1"
       inkscape:vp_y="0 : 1000 : 0"
       inkscape:vp_x="0 : 0.5 : 1"
       sodipodi:type="inkscape:persp3d" />
    <marker
       inkscape:stockid="DotL"
       orient="auto"
       refY="0"
       refX="0"
       id="DotL-6"
       style="overflow:visible">
      <path
         id="path3657-2"
         d="m -2.5,-1 c 0,2.76 -2.24,5 -5,5 -2.76,0 -5,-2.24 -5,-5 0,-2.76 2.24,-5 5,-5 2.76,0 5,2.24 5,5 z"
         style="fill-rule:evenodd;stroke:#000000;stroke-width:1pt;marker-start:none;marker-end:none"
         transform="matrix(0.8,0,0,0.8,5.92,0.8)" />
    </marker>
    <marker
       inkscape:stockid="DotL"
       orient="auto"
       refY="0"
       refX="0"
       id="marker4238"
       style="overflow:visible">
      <path
         id="path4240"
         d="m -2.5,-1 c 0,2.76 -2.24,5 -5,5 -2.76,0 -5,-2.24 -5,-5 0,-2.76 2.24,-5 5,-5 2.76,0 5,2.24 5,5 z"
         style="fill-rule:evenodd;stroke:#000000;stroke-width:1pt;marker-start:none;marker-end:none"
         transform="matrix(0.8,0,0,0.8,5.92,0.8)" />
    </marker>
    <inkscape:perspective
       id="perspective4232-7"
       inkscape:persp3d-origin="0.5 : 0.33333333 : 1"
       inkscape:vp_z="1 : 0.5 : 1"
       inkscape:vp_y="0 : 1000 : 0"
       inkscape:vp_x="0 : 0.5 : 1"
       sodipodi:type="inkscape:persp3d" />
    <marker
       inkscape:stockid="DotL"
       orient="auto"
       refY="0"
       refX="0"
       id="DotL-4"
       style="overflow:visible">
      <path
         id="path3657-8"
         d="m -2.5,-1 c 0,2.76 -2.24,5 -5,5 -2.76,0 -5,-2.24 -5,-5 0,-2.76 2.24,-5 5,-5 2.76,0 5,2.24 5,5 z"
         style="fill-rule:evenodd;stroke:#000000;stroke-width:1pt;marker-start:none;marker-end:none"
         transform="matrix(0.8,0,0,0.8,5.92,0.8)" />
    </marker>
    <marker
       inkscape:stockid="DotL"
       orient="auto"
       refY="0"
       refX="0"
       id="marker4238-5"
       style="overflow:visible">
      <path
         id="path4240-8"
         d="m -2.5,-1 c 0,2.76 -2.24,5 -5,5 -2.76,0 -5,-2.24 -5,-5 0,-2.76 2.24,-5 5,-5 2.76,0 5,2.24 5,5 z"
         style="fill-rule:evenodd;stroke:#000000;stroke-width:1pt;marker-start:none;marker-end:none"
         transform="matrix(0.8,0,0,0.8,5.92,0.8)" />
    </marker>
    <inkscape:perspective
       id="perspective4363"
       inkscape:persp3d-origin="0.5 : 0.33333333 : 1"
       inkscape:vp_z="1 : 0.5 : 1"
       inkscape:vp_y="0 : 1000 : 0"
       inkscape:vp_x="0 : 0.5 : 1"
       sodipodi:type="inkscape:persp3d" />
    <inkscape:perspective
       id="perspective4434"
       inkscape:persp3d-origin="0.5 : 0.33333333 : 1"
       inkscape:vp_z="1 : 0.5 : 1"
       inkscape:vp_y="0 : 1000 : 0"
       inkscape:vp_x="0 : 0.5 : 1"
       sodipodi:type="inkscape:persp3d" />
    <inkscape:perspective
       id="perspective4487"
       inkscape:persp3d-origin="0.5 : 0.33333333 : 1"
       inkscape:vp_z="1 : 0.5 : 1"
       inkscape:vp_y="0 : 1000 : 0"
       inkscape:vp_x="0 : 0.5 : 1"
       sodipodi:type="inkscape:persp3d" />
    <inkscape:perspective
       id="perspective4501"
       inkscape:persp3d-origin="0.5 : 0.33333333 : 1"
       inkscape:vp_z="1 : 0.5 : 1"
       inkscape:vp_y="0 : 1000 : 0"
       inkscape:vp_x="0 : 0.5 : 1"
       sodipodi:type="inkscape:persp3d" />
    <marker
       inkscape:stockid="DotL"
       orient="auto"
       refY="0"
       refX="0"
       id="DotL-1"
       style="overflow:visible">
      <path
         id="path3657-1"
         d="m -2.5,-1 c 0,2.76 -2.24,5 -5,5 -2.76,0 -5,-2.24 -5,-5 0,-2.76 2.24,-5 5,-5 2.76,0 5,2.24 5,5 z"
         style="fill-rule:evenodd;stroke:#000000;stroke-width:1pt;marker-start:none;marker-end:none"
         transform="matrix(0.8,0,0,0.8,5.92,0.8)" />
    </marker>
    <marker
       inkscape:stockid="DotL"
       orient="auto"
       refY="0"
       refX="0"
       id="marker4507"
       style="overflow:visible">
      <path
         id="path4509"
         d="m -2.5,-1 c 0,2.76 -2.24,5 -5,5 -2.76,0 -5,-2.24 -5,-5 0,-2.76 2.24,-5 5,-5 2.76,0 5,2.24 5,5 z"
         style="fill-rule:evenodd;stroke:#000000;stroke-width:1pt;marker-start:none;marker-end:none"
         transform="matrix(0.8,0,0,0.8,5.92,0.8)" />
    </marker>
    <marker
       inkscape:stockid="DotL"
       orient="auto"
       refY="0"
       refX="0"
       id="marker4511"
       style="overflow:visible">
      <path
         id="path4513"
         d="m -2.5,-1 c 0,2.76 -2.24,5 -5,5 -2.76,0 -5,-2.24 -5,-5 0,-2.76 2.24,-5 5,-5 2.76,0 5,2.24 5,5 z"
         style="fill-rule:evenodd;stroke:#000000;stroke-width:1pt;marker-start:none;marker-end:none"
         transform="matrix(0.8,0,0,0.8,5.92,0.8)" />
    </marker>
    <marker
       inkscape:stockid="DotL"
       orient="auto"
       refY="0"
       refX="0"
       id="marker4515"
       style="overflow:visible">
      <path
         id="path4517"
         d="m -2.5,-1 c 0,2.76 -2.24,5 -5,5 -2.76,0 -5,-2.24 -5,-5 0,-2.76 2.24,-5 5,-5 2.76,0 5,2.24 5,5 z"
         style="fill-rule:evenodd;stroke:#000000;stroke-width:1pt;marker-start:none;marker-end:none"
         transform="matrix(0.8,0,0,0.8,5.92,0.8)" />
    </marker>
    <marker
       inkscape:stockid="DotL"
       orient="auto"
       refY="0"
       refX="0"
       id="marker4519"
       style="overflow:visible">
      <path
         id="path4521"
         d="m -2.5,-1 c 0,2.76 -2.24,5 -5,5 -2.76,0 -5,-2.24 -5,-5 0,-2.76 2.24,-5 5,-5 2.76,0 5,2.24 5,5 z"
         style="fill-rule:evenodd;stroke:#000000;stroke-width:1pt;marker-start:none;marker-end:none"
         transform="matrix(0.8,0,0,0.8,5.92,0.8)" />
    </marker>
    <marker
       inkscape:stockid="DotL"
       orient="auto"
       refY="0"
       refX="0"
       id="marker4523"
       style="overflow:visible">
      <path
         id="path4525"
         d="m -2.5,-1 c 0,2.76 -2.24,5 -5,5 -2.76,0 -5,-2.24 -5,-5 0,-2.76 2.24,-5 5,-5 2.76,0 5,2.24 5,5 z"
         style="fill-rule:evenodd;stroke:#000000;stroke-width:1pt;marker-start:none;marker-end:none"
         transform="matrix(0.8,0,0,0.8,5.92,0.8)" />
    </marker>
    <inkscape:perspective
       id="perspective4501-7"
       inkscape:persp3d-origin="0.5 : 0.33333333 : 1"
       inkscape:vp_z="1 : 0.5 : 1"
       inkscape:vp_y="0 : 1000 : 0"
       inkscape:vp_x="0 : 0.5 : 1"
       sodipodi:type="inkscape:persp3d" />
    <marker
       inkscape:stockid="DotL"
       orient="auto"
       refY="0"
       refX="0"
       id="DotL-5"
       style="overflow:visible">
      <path
         id="path3657-4"
         d="m -2.5,-1 c 0,2.76 -2.24,5 -5,5 -2.76,0 -5,-2.24 -5,-5 0,-2.76 2.24,-5 5,-5 2.76,0 5,2.24 5,5 z"
         style="fill-rule:evenodd;stroke:#000000;stroke-width:1pt;marker-start:none;marker-end:none"
         transform="matrix(0.8,0,0,0.8,5.92,0.8)" />
    </marker>
    <marker
       inkscape:stockid="DotL"
       orient="auto"
       refY="0"
       refX="0"
       id="marker4507-4"
       style="overflow:visible">
      <path
         id="path4509-9"
         d="m -2.5,-1 c 0,2.76 -2.24,5 -5,5 -2.76,0 -5,-2.24 -5,-5 0,-2.76 2.24,-5 5,-5 2.76,0 5,2.24 5,5 z"
         style="fill-rule:evenodd;stroke:#000000;stroke-width:1pt;marker-start:none;marker-end:none"
         transform="matrix(0.8,0,0,0.8,5.92,0.8)" />
    </marker>
    <marker
       inkscape:stockid="DotL"
       orient="auto"
       refY="0"
       refX="0"
       id="marker4511-6"
       style="overflow:visible">
      <path
         id="path4513-7"
         d="m -2.5,-1 c 0,2.76 -2.24,5 -5,5 -2.76,0 -5,-2.24 -5,-5 0,-2.76 2.24,-5 5,-5 2.76,0 5,2.24 5,5 z"
         style="fill-rule:evenodd;stroke:#000000;stroke-width:1pt;marker-start:none;marker-end:none"
         transform="matrix(0.8,0,0,0.8,5.92,0.8)" />
    </marker>
    <marker
       inkscape:stockid="DotL"
       orient="auto"
       refY="0"
       refX="0"
       id="marker4515-2"
       style="overflow:visible">
      <path
         id="path4517-1"
         d="m -2.5,-1 c 0,2.76 -2.24,5 -5,5 -2.76,0 -5,-2.24 -5,-5 0,-2.76 2.24,-5 5,-5 2.76,0 5,2.24 5,5 z"
         style="fill-rule:evenodd;stroke:#000000;stroke-width:1pt;marker-start:none;marker-end:none"
         transform="matrix(0.8,0,0,0.8,5.92,0.8)" />
    </marker>
    <marker
       inkscape:stockid="DotL"
       orient="auto"
       refY="0"
       refX="0"
       id="marker4519-0"
       style="overflow:visible">
      <path
         id="path4521-1"
         d="m -2.5,-1 c 0,2.76 -2.24,5 -5,5 -2.76,0 -5,-2.24 -5,-5 0,-2.76 2.24,-5 5,-5 2.76,0 5,2.24 5,5 z"
         style="fill-rule:evenodd;stroke:#000000;stroke-width:1pt;marker-start:none;marker-end:none"
         transform="matrix(0.8,0,0,0.8,5.92,0.8)" />
    </marker>
    <marker
       inkscape:stockid="DotL"
       orient="auto"
       refY="0"
       refX="0"
       id="marker4523-3"
       style="overflow:visible">
      <path
         id="path4525-7"
         d="m -2.5,-1 c 0,2.76 -2.24,5 -5,5 -2.76,0 -5,-2.24 -5,-5 0,-2.76 2.24,-5 5,-5 2.76,0 5,2.24 5,5 z"
         style="fill-rule:evenodd;stroke:#000000;stroke-width:1pt;marker-start:none;marker-end:none"
         transform="matrix(0.8,0,0,0.8,5.92,0.8)" />
    </marker>
    <inkscape:perspective
       id="perspective4632"
       inkscape:persp3d-origin="0.5 : 0.33333333 : 1"
       inkscape:vp_z="1 : 0.5 : 1"
       inkscape:vp_y="0 : 1000 : 0"
       inkscape:vp_x="0 : 0.5 : 1"
       sodipodi:type="inkscape:persp3d" />
    <marker
       inkscape:stockid="DotL"
       orient="auto"
       refY="0"
       refX="0"
       id="DotL-0"
       style="overflow:visible">
      <path
         id="path3657-27"
         d="m -2.5,-1 c 0,2.76 -2.24,5 -5,5 -2.76,0 -5,-2.24 -5,-5 0,-2.76 2.24,-5 5,-5 2.76,0 5,2.24 5,5 z"
         style="fill-rule:evenodd;stroke:#000000;stroke-width:1pt;marker-start:none;marker-end:none"
         transform="matrix(0.8,0,0,0.8,5.92,0.8)" />
    </marker>
    <marker
       inkscape:stockid="DotL"
       orient="auto"
       refY="0"
       refX="0"
       id="marker4638"
       style="overflow:visible">
      <path
         id="path4640"
         d="m -2.5,-1 c 0,2.76 -2.24,5 -5,5 -2.76,0 -5,-2.24 -5,-5 0,-2.76 2.24,-5 5,-5 2.76,0 5,2.24 5,5 z"
         style="fill-rule:evenodd;stroke:#000000;stroke-width:1pt;marker-start:none;marker-end:none"
         transform="matrix(0.8,0,0,0.8,5.92,0.8)" />
    </marker>
    <marker
       inkscape:stockid="DotL"
       orient="auto"
       refY="0"
       refX="0"
       id="marker4642"
       style="overflow:visible">
      <path
         id="path4644"
         d="m -2.5,-1 c 0,2.76 -2.24,5 -5,5 -2.76,0 -5,-2.24 -5,-5 0,-2.76 2.24,-5 5,-5 2.76,0 5,2.24 5,5 z"
         style="fill-rule:evenodd;stroke:#000000;stroke-width:1pt;marker-start:none;marker-end:none"
         transform="matrix(0.8,0,0,0.8,5.92,0.8)" />
    </marker>
    <marker
       inkscape:stockid="DotL"
       orient="auto"
       refY="0"
       refX="0"
       id="marker4646"
       style="overflow:visible">
      <path
         id="path4648"
         d="m -2.5,-1 c 0,2.76 -2.24,5 -5,5 -2.76,0 -5,-2.24 -5,-5 0,-2.76 2.24,-5 5,-5 2.76,0 5,2.24 5,5 z"
         style="fill-rule:evenodd;stroke:#000000;stroke-width:1pt;marker-start:none;marker-end:none"
         transform="matrix(0.8,0,0,0.8,5.92,0.8)" />
    </marker>
    <marker
       inkscape:stockid="DotL"
       orient="auto"
       refY="0"
       refX="0"
       id="marker4650"
       style="overflow:visible">
      <path
         id="path4652"
         d="m -2.5,-1 c 0,2.76 -2.24,5 -5,5 -2.76,0 -5,-2.24 -5,-5 0,-2.76 2.24,-5 5,-5 2.76,0 5,2.24 5,5 z"
         style="fill-rule:evenodd;stroke:#000000;stroke-width:1pt;marker-start:none;marker-end:none"
         transform="matrix(0.8,0,0,0.8,5.92,0.8)" />
    </marker>
    <marker
       inkscape:stockid="DotL"
       orient="auto"
       refY="0"
       refX="0"
       id="marker4654"
       style="overflow:visible">
      <path
         id="path4656"
         d="m -2.5,-1 c 0,2.76 -2.24,5 -5,5 -2.76,0 -5,-2.24 -5,-5 0,-2.76 2.24,-5 5,-5 2.76,0 5,2.24 5,5 z"
         style="fill-rule:evenodd;stroke:#000000;stroke-width:1pt;marker-start:none;marker-end:none"
         transform="matrix(0.8,0,0,0.8,5.92,0.8)" />
    </marker>
    <marker
       inkscape:stockid="DotL"
       orient="auto"
       refY="0"
       refX="0"
       id="marker4658"
       style="overflow:visible">
      <path
         id="path4660"
         d="m -2.5,-1 c 0,2.76 -2.24,5 -5,5 -2.76,0 -5,-2.24 -5,-5 0,-2.76 2.24,-5 5,-5 2.76,0 5,2.24 5,5 z"
         style="fill-rule:evenodd;stroke:#000000;stroke-width:1pt;marker-start:none;marker-end:none"
         transform="matrix(0.8,0,0,0.8,5.92,0.8)" />
    </marker>
    <marker
       inkscape:stockid="DotL"
       orient="auto"
       refY="0"
       refX="0"
       id="marker4662"
       style="overflow:visible">
      <path
         id="path4664"
         d="m -2.5,-1 c 0,2.76 -2.24,5 -5,5 -2.76,0 -5,-2.24 -5,-5 0,-2.76 2.24,-5 5,-5 2.76,0 5,2.24 5,5 z"
         style="fill-rule:evenodd;stroke:#000000;stroke-width:1pt;marker-start:none;marker-end:none"
         transform="matrix(0.8,0,0,0.8,5.92,0.8)" />
    </marker>
    <marker
       inkscape:stockid="DotL"
       orient="auto"
       refY="0"
       refX="0"
       id="marker4666"
       style="overflow:visible">
      <path
         id="path4668"
         d="m -2.5,-1 c 0,2.76 -2.24,5 -5,5 -2.76,0 -5,-2.24 -5,-5 0,-2.76 2.24,-5 5,-5 2.76,0 5,2.24 5,5 z"
         style="fill-rule:evenodd;stroke:#000000;stroke-width:1pt;marker-start:none;marker-end:none"
         transform="matrix(0.8,0,0,0.8,5.92,0.8)" />
    </marker>
    <marker
       inkscape:stockid="DotL"
       orient="auto"
       refY="0"
       refX="0"
       id="marker4670"
       style="overflow:visible">
      <path
         id="path4672"
         d="m -2.5,-1 c 0,2.76 -2.24,5 -5,5 -2.76,0 -5,-2.24 -5,-5 0,-2.76 2.24,-5 5,-5 2.76,0 5,2.24 5,5 z"
         style="fill-rule:evenodd;stroke:#000000;stroke-width:1pt;marker-start:none;marker-end:none"
         transform="matrix(0.8,0,0,0.8,5.92,0.8)" />
    </marker>
    <marker
       inkscape:stockid="DotL"
       orient="auto"
       refY="0"
       refX="0"
       id="marker4674"
       style="overflow:visible">
      <path
         id="path4676"
         d="m -2.5,-1 c 0,2.76 -2.24,5 -5,5 -2.76,0 -5,-2.24 -5,-5 0,-2.76 2.24,-5 5,-5 2.76,0 5,2.24 5,5 z"
         style="fill-rule:evenodd;stroke:#000000;stroke-width:1pt;marker-start:none;marker-end:none"
         transform="matrix(0.8,0,0,0.8,5.92,0.8)" />
    </marker>
    <marker
       inkscape:stockid="DotL"
       orient="auto"
       refY="0"
       refX="0"
       id="marker4678"
       style="overflow:visible">
      <path
         id="path4680"
         d="m -2.5,-1 c 0,2.76 -2.24,5 -5,5 -2.76,0 -5,-2.24 -5,-5 0,-2.76 2.24,-5 5,-5 2.76,0 5,2.24 5,5 z"
         style="fill-rule:evenodd;stroke:#000000;stroke-width:1pt;marker-start:none;marker-end:none"
         transform="matrix(0.8,0,0,0.8,5.92,0.8)" />
    </marker>
    <inkscape:perspective
       id="perspective4787"
       inkscape:persp3d-origin="0.5 : 0.33333333 : 1"
       inkscape:vp_z="1 : 0.5 : 1"
       inkscape:vp_y="0 : 1000 : 0"
       inkscape:vp_x="0 : 0.5 : 1"
       sodipodi:type="inkscape:persp3d" />
    <marker
       inkscape:stockid="DotL"
       orient="auto"
       refY="0"
       refX="0"
       id="DotL-45"
       style="overflow:visible">
      <path
         id="path3657-42"
         d="m -2.5,-1 c 0,2.76 -2.24,5 -5,5 -2.76,0 -5,-2.24 -5,-5 0,-2.76 2.24,-5 5,-5 2.76,0 5,2.24 5,5 z"
         style="fill-rule:evenodd;stroke:#000000;stroke-width:1pt;marker-start:none;marker-end:none"
         transform="matrix(0.8,0,0,0.8,5.92,0.8)" />
    </marker>
    <marker
       inkscape:stockid="DotL"
       orient="auto"
       refY="0"
       refX="0"
       id="marker4793"
       style="overflow:visible">
      <path
         id="path4795"
         d="m -2.5,-1 c 0,2.76 -2.24,5 -5,5 -2.76,0 -5,-2.24 -5,-5 0,-2.76 2.24,-5 5,-5 2.76,0 5,2.24 5,5 z"
         style="fill-rule:evenodd;stroke:#000000;stroke-width:1pt;marker-start:none;marker-end:none"
         transform="matrix(0.8,0,0,0.8,5.92,0.8)" />
    </marker>
    <marker
       inkscape:stockid="DotL"
       orient="auto"
       refY="0"
       refX="0"
       id="marker4797"
       style="overflow:visible">
      <path
         id="path4799"
         d="m -2.5,-1 c 0,2.76 -2.24,5 -5,5 -2.76,0 -5,-2.24 -5,-5 0,-2.76 2.24,-5 5,-5 2.76,0 5,2.24 5,5 z"
         style="fill-rule:evenodd;stroke:#000000;stroke-width:1pt;marker-start:none;marker-end:none"
         transform="matrix(0.8,0,0,0.8,5.92,0.8)" />
    </marker>
    <marker
       inkscape:stockid="DotL"
       orient="auto"
       refY="0"
       refX="0"
       id="marker4801"
       style="overflow:visible">
      <path
         id="path4803"
         d="m -2.5,-1 c 0,2.76 -2.24,5 -5,5 -2.76,0 -5,-2.24 -5,-5 0,-2.76 2.24,-5 5,-5 2.76,0 5,2.24 5,5 z"
         style="fill-rule:evenodd;stroke:#000000;stroke-width:1pt;marker-start:none;marker-end:none"
         transform="matrix(0.8,0,0,0.8,5.92,0.8)" />
    </marker>
    <marker
       inkscape:stockid="DotL"
       orient="auto"
       refY="0"
       refX="0"
       id="marker4805"
       style="overflow:visible">
      <path
         id="path4807"
         d="m -2.5,-1 c 0,2.76 -2.24,5 -5,5 -2.76,0 -5,-2.24 -5,-5 0,-2.76 2.24,-5 5,-5 2.76,0 5,2.24 5,5 z"
         style="fill-rule:evenodd;stroke:#000000;stroke-width:1pt;marker-start:none;marker-end:none"
         transform="matrix(0.8,0,0,0.8,5.92,0.8)" />
    </marker>
    <marker
       inkscape:stockid="DotL"
       orient="auto"
       refY="0"
       refX="0"
       id="marker4809"
       style="overflow:visible">
      <path
         id="path4811"
         d="m -2.5,-1 c 0,2.76 -2.24,5 -5,5 -2.76,0 -5,-2.24 -5,-5 0,-2.76 2.24,-5 5,-5 2.76,0 5,2.24 5,5 z"
         style="fill-rule:evenodd;stroke:#000000;stroke-width:1pt;marker-start:none;marker-end:none"
         transform="matrix(0.8,0,0,0.8,5.92,0.8)" />
    </marker>
    <inkscape:perspective
       id="perspective5113"
       inkscape:persp3d-origin="0.5 : 0.33333333 : 1"
       inkscape:vp_z="1 : 0.5 : 1"
       inkscape:vp_y="0 : 1000 : 0"
       inkscape:vp_x="0 : 0.5 : 1"
       sodipodi:type="inkscape:persp3d" />
    <inkscape:perspective
       id="perspective5911"
       inkscape:persp3d-origin="0.5 : 0.33333333 : 1"
       inkscape:vp_z="1 : 0.5 : 1"
       inkscape:vp_y="0 : 1000 : 0"
       inkscape:vp_x="0 : 0.5 : 1"
       sodipodi:type="inkscape:persp3d" />
    <inkscape:perspective
       id="perspective5911-5"
       inkscape:persp3d-origin="0.5 : 0.33333333 : 1"
       inkscape:vp_z="1 : 0.5 : 1"
       inkscape:vp_y="0 : 1000 : 0"
       inkscape:vp_x="0 : 0.5 : 1"
       sodipodi:type="inkscape:persp3d" />
    <inkscape:perspective
       id="perspective5947"
       inkscape:persp3d-origin="0.5 : 0.33333333 : 1"
       inkscape:vp_z="1 : 0.5 : 1"
       inkscape:vp_y="0 : 1000 : 0"
       inkscape:vp_x="0 : 0.5 : 1"
       sodipodi:type="inkscape:persp3d" />
    <marker
       inkscape:stockid="DotL"
       orient="auto"
       refY="0"
       refX="0"
       id="DotL-46"
       style="overflow:visible">
      <path
         id="path3657-18"
         d="m -2.5,-1 c 0,2.76 -2.24,5 -5,5 -2.76,0 -5,-2.24 -5,-5 0,-2.76 2.24,-5 5,-5 2.76,0 5,2.24 5,5 z"
         style="fill-rule:evenodd;stroke:#000000;stroke-width:1pt;marker-start:none;marker-end:none"
         transform="matrix(0.8,0,0,0.8,5.92,0.8)" />
    </marker>
    <marker
       inkscape:stockid="DotL"
       orient="auto"
       refY="0"
       refX="0"
       id="marker5953"
       style="overflow:visible">
      <path
         id="path5955"
         d="m -2.5,-1 c 0,2.76 -2.24,5 -5,5 -2.76,0 -5,-2.24 -5,-5 0,-2.76 2.24,-5 5,-5 2.76,0 5,2.24 5,5 z"
         style="fill-rule:evenodd;stroke:#000000;stroke-width:1pt;marker-start:none;marker-end:none"
         transform="matrix(0.8,0,0,0.8,5.92,0.8)" />
    </marker>
    <inkscape:perspective
       id="perspective3959"
       inkscape:persp3d-origin="0.5 : 0.33333333 : 1"
       inkscape:vp_z="1 : 0.5 : 1"
       inkscape:vp_y="0 : 1000 : 0"
       inkscape:vp_x="0 : 0.5 : 1"
       sodipodi:type="inkscape:persp3d" />
    <inkscape:perspective
       id="perspective3981"
       inkscape:persp3d-origin="0.5 : 0.33333333 : 1"
       inkscape:vp_z="1 : 0.5 : 1"
       inkscape:vp_y="0 : 1000 : 0"
       inkscape:vp_x="0 : 0.5 : 1"
       sodipodi:type="inkscape:persp3d" />
    <inkscape:perspective
       id="perspective4006"
       inkscape:persp3d-origin="0.5 : 0.33333333 : 1"
       inkscape:vp_z="1 : 0.5 : 1"
       inkscape:vp_y="0 : 1000 : 0"
       inkscape:vp_x="0 : 0.5 : 1"
       sodipodi:type="inkscape:persp3d" />
    <inkscape:perspective
       id="perspective4031"
       inkscape:persp3d-origin="0.5 : 0.33333333 : 1"
       inkscape:vp_z="1 : 0.5 : 1"
       inkscape:vp_y="0 : 1000 : 0"
       inkscape:vp_x="0 : 0.5 : 1"
       sodipodi:type="inkscape:persp3d" />
    <inkscape:perspective
       id="perspective4075"
       inkscape:persp3d-origin="0.5 : 0.33333333 : 1"
       inkscape:vp_z="1 : 0.5 : 1"
       inkscape:vp_y="0 : 1000 : 0"
       inkscape:vp_x="0 : 0.5 : 1"
       sodipodi:type="inkscape:persp3d" />
    <inkscape:perspective
       id="perspective4097"
       inkscape:persp3d-origin="0.5 : 0.33333333 : 1"
       inkscape:vp_z="1 : 0.5 : 1"
       inkscape:vp_y="0 : 1000 : 0"
       inkscape:vp_x="0 : 0.5 : 1"
       sodipodi:type="inkscape:persp3d" />
    <inkscape:perspective
       id="perspective4122"
       inkscape:persp3d-origin="0.5 : 0.33333333 : 1"
       inkscape:vp_z="1 : 0.5 : 1"
       inkscape:vp_y="0 : 1000 : 0"
       inkscape:vp_x="0 : 0.5 : 1"
       sodipodi:type="inkscape:persp3d" />
  </defs>
  <sodipodi:namedview
     id="base"
     pagecolor="#ffffff"
     bordercolor="#666666"
     borderopacity="1.0"
     inkscape:pageopacity="0.0"
     inkscape:pageshadow="2"
     inkscape:zoom="1.4"
     inkscape:cx="350.55596"
     inkscape:cy="357.0393"
     inkscape:document-units="px"
     inkscape:current-layer="layer1"
     showgrid="false"
     inkscape:window-width="1680"
     inkscape:window-height="976"
     inkscape:window-x="0"
     inkscape:window-y="25"
     inkscape:window-maximized="1" />
  <metadata
     id="metadata7">
    <rdf:RDF>
      <cc:Work
         rdf:about="">
        <dc:format>image/svg+xml</dc:format>
        <dc:type
           rdf:resource="http://purl.org/dc/dcmitype/StillImage" />
        <dc:title></dc:title>
      </cc:Work>
    </rdf:RDF>
  </metadata>
  <g
     inkscape:label="Layer 1"
     inkscape:groupmode="layer"
     id="layer1">
    <image
       y="204.45744"
       x="309.14285"
       id="image4365"
       height="61.047623"
       width="183.14285"
       xlink:href="file:///home/roa/Desktop/QAnimDrawer/data/P01/hand.png"
       inkscape:export-filename="/home/roa/Desktop/QAnimDrawer/doc/step4.png"
       inkscape:export-xdpi="90"
       inkscape:export-ydpi="90" />
    <path
       sodipodi:type="star"
       style="fill:#cdd891;fill-opacity:1;stroke:#ac0000;stroke-opacity:1"
       id="path2816"
       sodipodi:sides="5"
       sodipodi:cx="165"
       sodipodi:cy="237.36218"
       sodipodi:r1="22.004174"
       sodipodi:r2="11.002087"
       sodipodi:arg1="0.22923193"
       sodipodi:arg2="0.85755046"
       inkscape:flatsided="false"
       inkscape:rounded="0"
       inkscape:randomized="0"
       d="m 186.42857,242.36218 -14.22999,3.32024 -5.33207,13.60463 -7.55505,-12.50752 -14.58646,-0.86703 9.56071,-11.05032 -3.68286,-14.14048 13.46389,5.67805 12.31033,-7.87226 -1.23957,14.55954 11.29107,9.27515 z"
       inkscape:export-filename="/home/roa/Desktop/QAnimDrawer/doc/step4.png"
       inkscape:export-xdpi="90"
       inkscape:export-ydpi="90" />
    <path
       style="fill:none;stroke:#000000;stroke-width:1px;stroke-linecap:butt;stroke-linejoin:miter;stroke-opacity:1;marker-start:url(#DotL);marker-end:url(#DotL)"
       d="m 248.57143,236.6479 118.57142,0"
       id="path2818"
       inkscape:export-filename="/home/roa/Desktop/QAnimDrawer/doc/step4.png"
       inkscape:export-xdpi="90"
       inkscape:export-ydpi="90" />
    <path
       style="fill:none;stroke:#000000;stroke-width:1px;stroke-linecap:butt;stroke-linejoin:miter;stroke-opacity:1;marker-start:url(#DotL);marker-end:url(#DotL)"
       d="m 166.50858,236.6479 82.14285,0"
       id="path2818-1"
       sodipodi:nodetypes="cc"
       inkscape:export-filename="/home/roa/Desktop/QAnimDrawer/doc/step4.png"
       inkscape:export-xdpi="90"
       inkscape:export-ydpi="90" />
    <path
       style="fill:none;stroke:#000000;stroke-width:1px;stroke-linecap:butt;stroke-linejoin:miter;stroke-opacity:1;marker-start:url(#DotL);marker-end:url(#DotL)"
       d="m 366.50857,236.6479 32.14285,0"
       id="path2818-2"
       sodipodi:nodetypes="cc"
       inkscape:export-filename="/home/roa/Desktop/QAnimDrawer/doc/step4.png"
       inkscape:export-xdpi="90"
       inkscape:export-ydpi="90" />
    <image
       y="277.90982"
       x="75.214287"
       id="image4489-3"
       height="63.190475"
       width="251"
       xlink:href="file:///home/roa/Desktop/QAnimDrawer/data/P01/arm.png" />
    <image
       y="277.19553"
       x="138.78571"
       id="image4436-1"
       height="67.476189"
       width="341.71429"
       xlink:href="file:///home/roa/Desktop/QAnimDrawer/data/P01/forearm.png"
       inkscape:export-filename="/home/roa/Desktop/QAnimDrawer/doc/step5.png"
       inkscape:export-xdpi="90"
       inkscape:export-ydpi="90" />
    <image
       y="277.90985"
       x="304.5"
       id="image4365-5"
       height="61.047623"
       width="183.14285"
       xlink:href="file:///home/roa/Desktop/QAnimDrawer/data/P01/hand.png"
       inkscape:export-filename="/home/roa/Desktop/QAnimDrawer/doc/step5.png"
       inkscape:export-xdpi="90"
       inkscape:export-ydpi="90" />
    <path
       transform="translate(-4.6428542,73.452388)"
       sodipodi:type="star"
       style="fill:#cdd891;fill-opacity:1;stroke:#ac0000;stroke-opacity:1"
       id="path2816-8"
       sodipodi:sides="5"
       sodipodi:cx="165"
       sodipodi:cy="237.36218"
       sodipodi:r1="22.004173"
       sodipodi:r2="11.002087"
       sodipodi:arg1="0.22923193"
       sodipodi:arg2="0.85755046"
       inkscape:flatsided="false"
       inkscape:rounded="0"
       inkscape:randomized="0"
       d="m 186.42857,242.36218 -14.22999,3.32024 -5.33207,13.60463 -7.55505,-12.50752 -14.58646,-0.86703 9.56071,-11.05032 -3.68286,-14.14048 13.46389,5.67805 12.31033,-7.87226 -1.23957,14.55954 11.29107,9.27515 z"
       inkscape:export-filename="/home/roa/Desktop/QAnimDrawer/doc/step5.png"
       inkscape:export-xdpi="90"
       inkscape:export-ydpi="90" />
    <path
       style="fill:none;stroke:#000000;stroke-width:1px;stroke-linecap:butt;stroke-linejoin:miter;stroke-opacity:1;marker-start:url(#DotL);marker-end:url(#DotL)"
       d="m 243.92857,310.10028 118.57142,0"
       id="path2818-13"
       inkscape:export-filename="/home/roa/Desktop/QAnimDrawer/doc/step5.png"
       inkscape:export-xdpi="90"
       inkscape:export-ydpi="90" />
    <path
       style="fill:none;stroke:#000000;stroke-width:1px;stroke-linecap:butt;stroke-linejoin:miter;stroke-opacity:1;marker-start:url(#DotL);marker-end:url(#DotL)"
       d="m 161.86572,310.10028 82.14285,0"
       id="path2818-1-3"
       sodipodi:nodetypes="cc"
       inkscape:export-filename="/home/roa/Desktop/QAnimDrawer/doc/step5.png"
       inkscape:export-xdpi="90"
       inkscape:export-ydpi="90" />
    <path
       style="fill:none;stroke:#000000;stroke-width:1px;stroke-linecap:butt;stroke-linejoin:miter;stroke-opacity:1;marker-start:url(#DotL);marker-end:url(#DotL)"
       d="m 361.86571,310.10028 32.14285,0"
       id="path2818-2-9"
       sodipodi:nodetypes="cc"
       inkscape:export-filename="/home/roa/Desktop/QAnimDrawer/doc/step5.png"
       inkscape:export-xdpi="90"
       inkscape:export-ydpi="90" />
    <image
       y="478.19461"
       x="-28.101671"
       id="image4489-7"
       height="63.190475"
       width="251"
       xlink:href="file:///home/roa/Desktop/QAnimDrawer/data/P01/arm.png"
       transform="matrix(0.98023761,-0.19782373,0.19782373,0.98023761,0,0)"
       inkscape:export-filename="/home/roa/Desktop/QAnimDrawer/doc/step6.png"
       inkscape:export-xdpi="90"
       inkscape:export-ydpi="90" />
    <image
       y="492.28766"
       x="-171.39445"
       id="image4436-6"
       height="67.476189"
       width="341.71429"
       xlink:href="file:///home/roa/Desktop/QAnimDrawer/data/P01/forearm.png"
       transform="matrix(0.82982608,-0.55802211,0.55802211,0.82982608,0,0)"
       inkscape:export-filename="/home/roa/Desktop/QAnimDrawer/doc/step6.png"
       inkscape:export-xdpi="90"
       inkscape:export-ydpi="90" />
    <image
       y="443.18997"
       x="-286.79648"
       id="image4365-3"
       height="61.047623"
       width="183.14285"
       xlink:href="file:///home/roa/Desktop/QAnimDrawer/data/P01/hand.png"
       transform="matrix(0.41643667,-0.90916473,0.90916473,0.41643667,0,0)"
       inkscape:export-filename="/home/roa/Desktop/QAnimDrawer/doc/step6.png"
       inkscape:export-xdpi="90"
       inkscape:export-ydpi="90" />
    <path
       transform="translate(-6.7857117,252.02381)"
       sodipodi:type="star"
       style="fill:#cdd891;fill-opacity:1;stroke:#ac0000;stroke-opacity:1"
       id="path2816-9"
       sodipodi:sides="5"
       sodipodi:cx="165"
       sodipodi:cy="237.36218"
       sodipodi:r1="22.004173"
       sodipodi:r2="11.002087"
       sodipodi:arg1="0.22923193"
       sodipodi:arg2="0.85755046"
       inkscape:flatsided="false"
       inkscape:rounded="0"
       inkscape:randomized="0"
       d="m 186.42857,242.36218 -14.22999,3.32024 -5.33207,13.60463 -7.55505,-12.50752 -14.58646,-0.86703 9.56071,-11.05032 -3.68286,-14.14048 13.46389,5.67805 12.31033,-7.87226 -1.23957,14.55954 11.29107,9.27515 z"
       inkscape:export-filename="/home/roa/Desktop/QAnimDrawer/doc/step6.png"
       inkscape:export-xdpi="90"
       inkscape:export-ydpi="90" />
    <path
       style="fill:none;stroke:#000000;stroke-width:1px;stroke-linecap:butt;stroke-linejoin:miter;stroke-opacity:1;marker-start:url(#DotL);marker-end:url(#DotL)"
       d="m 238.0917,472.78824 98.39365,-66.16547"
       id="path2818-10"
       inkscape:export-filename="/home/roa/Desktop/QAnimDrawer/doc/step6.png"
       inkscape:export-xdpi="90"
       inkscape:export-ydpi="90" />
    <path
       style="fill:none;stroke:#000000;stroke-width:1px;stroke-linecap:butt;stroke-linejoin:miter;stroke-opacity:1;marker-start:url(#DotL);marker-end:url(#DotL)"
       d="m 158.35896,488.71614 80.51951,-16.24981"
       id="path2818-1-4"
       sodipodi:nodetypes="cc"
       inkscape:export-filename="/home/roa/Desktop/QAnimDrawer/doc/step6.png"
       inkscape:export-xdpi="90"
       inkscape:export-ydpi="90" />
    <path
       style="fill:none;stroke:#000000;stroke-width:1px;stroke-linecap:butt;stroke-linejoin:miter;stroke-opacity:1;marker-start:url(#DotL);marker-end:url(#DotL)"
       d="m 336.65577,406.55626 13.38547,-29.22315"
       id="path2818-2-1"
       sodipodi:nodetypes="cc"
       inkscape:export-filename="/home/roa/Desktop/QAnimDrawer/doc/step6.png"
       inkscape:export-xdpi="90"
       inkscape:export-ydpi="90" />
    <path
       transform="translate(-0.8928517,-137.55952)"
       sodipodi:type="star"
       style="fill:#cdd891;fill-opacity:1;stroke:#ac0000;stroke-opacity:1"
       id="path2816-7"
       sodipodi:sides="5"
       sodipodi:cx="165"
       sodipodi:cy="237.36218"
       sodipodi:r1="22.004173"
       sodipodi:r2="11.002087"
       sodipodi:arg1="0.22923193"
       sodipodi:arg2="0.85755046"
       inkscape:flatsided="false"
       inkscape:rounded="0"
       inkscape:randomized="0"
       d="m 186.42857,242.36218 -14.22999,3.32024 -5.33207,13.60463 -7.55505,-12.50752 -14.58646,-0.86703 9.56071,-11.05032 -3.68286,-14.14048 13.46389,5.67805 12.31033,-7.87226 -1.23957,14.55954 11.29107,9.27515 z"
       inkscape:export-filename="/home/roa/Desktop/QAnimDrawer/doc/step2.png"
       inkscape:export-xdpi="90"
       inkscape:export-ydpi="90" />
    <path
       style="fill:none;stroke:#000000;stroke-width:1px;stroke-linecap:butt;stroke-linejoin:miter;stroke-opacity:1;marker-start:url(#DotL);marker-end:url(#DotL)"
       d="m 165.61573,99.088368 82.14285,0"
       id="path2818-1-9"
       sodipodi:nodetypes="cc"
       inkscape:export-filename="/home/roa/Desktop/QAnimDrawer/doc/step2.png"
       inkscape:export-xdpi="90"
       inkscape:export-ydpi="90" />
    <path
       transform="translate(-5.5357017,-64.107142)"
       sodipodi:type="star"
       style="fill:#cdd891;fill-opacity:1;stroke:#ac0000;stroke-opacity:1"
       id="path2816-8-9"
       sodipodi:sides="5"
       sodipodi:cx="165"
       sodipodi:cy="237.36218"
       sodipodi:r1="22.004173"
       sodipodi:r2="11.002087"
       sodipodi:arg1="0.22923193"
       sodipodi:arg2="0.85755046"
       inkscape:flatsided="false"
       inkscape:rounded="0"
       inkscape:randomized="0"
       d="m 186.42857,242.36218 -14.22999,3.32024 -5.33207,13.60463 -7.55505,-12.50752 -14.58646,-0.86703 9.56071,-11.05032 -3.68286,-14.14048 13.46389,5.67805 12.31033,-7.87226 -1.23957,14.55954 11.29107,9.27515 z"
       inkscape:export-filename="/home/roa/Desktop/QAnimDrawer/doc/step3.png"
       inkscape:export-xdpi="90"
       inkscape:export-ydpi="90" />
    <path
       style="fill:none;stroke:#000000;stroke-width:1px;stroke-linecap:butt;stroke-linejoin:miter;stroke-opacity:1;marker-start:url(#DotL);marker-end:url(#DotL)"
       d="m 243.03572,172.54076 118.57142,0"
       id="path2818-13-8"
       inkscape:export-filename="/home/roa/Desktop/QAnimDrawer/doc/step3.png"
       inkscape:export-xdpi="90"
       inkscape:export-ydpi="90" />
    <path
       style="fill:none;stroke:#000000;stroke-width:1px;stroke-linecap:butt;stroke-linejoin:miter;stroke-opacity:1;marker-start:url(#DotL);marker-end:url(#DotL)"
       d="m 160.97287,172.54076 82.14285,0"
       id="path2818-1-3-0"
       sodipodi:nodetypes="cc"
       inkscape:export-filename="/home/roa/Desktop/QAnimDrawer/doc/step3.png"
       inkscape:export-xdpi="90"
       inkscape:export-ydpi="90" />
    <path
       style="fill:none;stroke:#000000;stroke-width:1px;stroke-linecap:butt;stroke-linejoin:miter;stroke-opacity:1;marker-start:url(#DotL);marker-end:url(#DotL)"
       d="m 360.97286,172.54076 32.14285,0"
       id="path2818-2-9-5"
       sodipodi:nodetypes="cc"
       inkscape:export-filename="/home/roa/Desktop/QAnimDrawer/doc/step3.png"
       inkscape:export-xdpi="90"
       inkscape:export-ydpi="90" />
    <path
       transform="translate(-4.3624984,-194.40223)"
       sodipodi:type="star"
       style="fill:#cdd891;fill-opacity:1;stroke:#ac0000;stroke-opacity:1"
       id="path2816-7-2"
       sodipodi:sides="5"
       sodipodi:cx="165"
       sodipodi:cy="237.36218"
       sodipodi:r1="22.004173"
       sodipodi:r2="11.002087"
       sodipodi:arg1="0.22923193"
       sodipodi:arg2="0.85755046"
       inkscape:flatsided="false"
       inkscape:rounded="0"
       inkscape:randomized="0"
       d="m 186.42857,242.36218 -14.22999,3.32024 -5.33207,13.60463 -7.55505,-12.50752 -14.58646,-0.86703 9.56071,-11.05032 -3.68286,-14.14048 13.46389,5.67805 12.31033,-7.87226 -1.23957,14.55954 11.29107,9.27515 z"
       inkscape:export-filename="/home/roa/Desktop/QAnimDrawer/doc/step1.png"
       inkscape:export-xdpi="90"
       inkscape:export-ydpi="90" />
    <image
       y="880.73352"
       x="32.271873"
       id="image5115"
       height="79.85714"
       width="239.57143"
       xlink:href="file:///home/roa/Desktop/QAnimDrawer/doc/head.png"
       inkscape:export-filename="/home/roa/Desktop/QAnimDrawer/doc/image.png"
       inkscape:export-xdpi="90"
       inkscape:export-ydpi="90" />
    <path
       style="fill:none;stroke:#000000;stroke-width:1px;stroke-linecap:butt;stroke-linejoin:miter;stroke-opacity:1;marker-start:url(#Arrow1Lstart);marker-mid:none;marker-end:url(#Arrow1Lend)"
       d="m 110.27186,866.01921 83.57143,0"
       id="path5119"
       inkscape:export-filename="/home/roa/Desktop/QAnimDrawer/doc/image.png"
       inkscape:export-xdpi="90"
       inkscape:export-ydpi="90" />
    <path
       style="fill:none;stroke:#000000;stroke-width:1px;stroke-linecap:butt;stroke-linejoin:miter;stroke-opacity:1;marker-start:url(#Arrow1Lstart);marker-mid:none;marker-end:url(#Arrow1Lend)"
       d="m 289.55758,882.44779 0,77.14285"
       id="path5121"
       inkscape:export-filename="/home/roa/Desktop/QAnimDrawer/doc/image.png"
       inkscape:export-xdpi="90"
       inkscape:export-ydpi="90" />
    <path
       style="fill:none;stroke:#000000;stroke-width:1px;stroke-linecap:butt;stroke-linejoin:miter;stroke-opacity:1;marker-start:url(#Arrow1Lstart);marker-mid:none;marker-end:url(#Arrow1Lend)"
       d="m 193.12901,975.30493 78.57143,0"
       id="path5123"
       inkscape:export-filename="/home/roa/Desktop/QAnimDrawer/doc/image.png"
       inkscape:export-xdpi="90"
       inkscape:export-ydpi="90" />
    <path
       style="fill:none;stroke:#000000;stroke-width:1px;stroke-linecap:butt;stroke-linejoin:miter;stroke-opacity:1;marker-start:url(#Arrow1Lstart);marker-mid:none;marker-end:url(#Arrow1Lend)"
       d="m 34.557577,979.59064 75.714283,0"
       id="path5125"
       inkscape:export-filename="/home/roa/Desktop/QAnimDrawer/doc/image.png"
       inkscape:export-xdpi="90"
       inkscape:export-ydpi="90" />
    <text
       xml:space="preserve"
       style="font-size:40px;font-style:normal;font-weight:normal;fill:#000000;fill-opacity:1;stroke:none;font-family:Bitstream Vera Sans"
       x="119.55755"
       y="854.59064"
       id="text5895"
       inkscape:export-filename="/home/roa/Desktop/QAnimDrawer/doc/image.png"
       inkscape:export-xdpi="90"
       inkscape:export-ydpi="90"><tspan
         sodipodi:role="line"
         id="tspan5897"
         x="119.55755"
         y="854.59064">len</tspan></text>
    <text
       xml:space="preserve"
       style="font-size:40px;font-style:normal;font-weight:normal;fill:#000000;fill-opacity:1;stroke:none;font-family:Bitstream Vera Sans"
       x="298.84332"
       y="930.30493"
       id="text5899"
       inkscape:export-filename="/home/roa/Desktop/QAnimDrawer/doc/image.png"
       inkscape:export-xdpi="90"
       inkscape:export-ydpi="90"><tspan
         sodipodi:role="line"
         id="tspan5901"
         x="298.84332"
         y="930.30493">h</tspan></text>
    <text
       xml:space="preserve"
       style="font-size:40px;font-style:normal;font-weight:normal;fill:#000000;fill-opacity:1;stroke:none;font-family:Bitstream Vera Sans"
       x="222.47888"
       y="1011.2145"
       id="text5899-3"
       inkscape:export-filename="/home/roa/Desktop/QAnimDrawer/doc/image.png"
       inkscape:export-xdpi="90"
       inkscape:export-ydpi="90"><tspan
         sodipodi:role="line"
         id="tspan5901-8"
         x="222.47888"
         y="1011.2145">h</tspan></text>
    <text
       xml:space="preserve"
       style="font-size:40px;font-style:normal;font-weight:normal;fill:#000000;fill-opacity:1;stroke:none;font-family:Bitstream Vera Sans"
       x="62.478905"
       y="1016.9288"
       id="text5899-8"
       inkscape:export-filename="/home/roa/Desktop/QAnimDrawer/doc/image.png"
       inkscape:export-xdpi="90"
       inkscape:export-ydpi="90"><tspan
         sodipodi:role="line"
         id="tspan5901-6"
         x="62.478905"
         y="1016.9288">h</tspan></text>
    <path
       style="fill:#0000a1;fill-opacity:1;stroke:#0017ca;stroke-width:2.54500008;stroke-linecap:butt;stroke-linejoin:miter;stroke-miterlimit:4;stroke-opacity:1;stroke-dasharray:none;marker-start:url(#DotL);marker-end:url(#DotL)"
       d="m 111.35717,921.20895 81.80803,0"
       id="path2818-2-9-1"
       sodipodi:nodetypes="cc"
       inkscape:export-filename="/home/roa/Desktop/QAnimDrawer/doc/image.png"
       inkscape:export-xdpi="90"
       inkscape:export-ydpi="90" />
    <rect
       style="fill:#4c00a1;fill-opacity:1;stroke:#0d905a;stroke-width:2.54500008;stroke-miterlimit:4;stroke-opacity:1;stroke-dasharray:none"
       id="rect2943"
       width="92.85714"
       height="36.42857"
       x="77.142853"
       y="628.43365"
       inkscape:export-filename="/home/roa/Desktop/QAnimDrawer/doc/joins1.png"
       inkscape:export-xdpi="90"
       inkscape:export-ydpi="90" />
    <rect
       style="fill:#4c00a1;fill-opacity:1;stroke:#0d905a;stroke-width:2.54500008;stroke-miterlimit:4;stroke-opacity:1;stroke-dasharray:none"
       id="rect2943-3"
       width="92.85714"
       height="36.42857"
       x="168.57143"
       y="628.43359"
       inkscape:export-filename="/home/roa/Desktop/QAnimDrawer/doc/joins1.png"
       inkscape:export-xdpi="90"
       inkscape:export-ydpi="90" />
    <rect
       style="fill:#4c00a1;fill-opacity:1;stroke:#0d905a;stroke-width:2.54500008;stroke-miterlimit:4;stroke-opacity:1;stroke-dasharray:none"
       id="rect2943-8"
       width="92.85714"
       height="36.42857"
       x="80.714287"
       y="729.86224"
       inkscape:export-filename="/home/roa/Desktop/QAnimDrawer/doc/joins1.png"
       inkscape:export-xdpi="90"
       inkscape:export-ydpi="90" />
    <rect
       style="fill:#4c00a1;fill-opacity:1;stroke:#0d905a;stroke-width:2.54500008;stroke-miterlimit:4;stroke-opacity:1;stroke-dasharray:none"
       id="rect2943-3-4"
       width="92.85714"
       height="36.42857"
       x="-277.14325"
       y="698.08527"
       inkscape:transform-center-x="-37.848307"
       transform="matrix(0.82793175,-0.56082887,0.56082887,0.82793175,0,0)"
       inkscape:transform-center-y="-25.637873"
       inkscape:export-filename="/home/roa/Desktop/QAnimDrawer/doc/joins1.png"
       inkscape:export-xdpi="90"
       inkscape:export-ydpi="90" />
    <rect
       style="fill:#4c00a1;fill-opacity:1;stroke:#0d905a;stroke-width:2.54500008;stroke-miterlimit:4;stroke-opacity:1;stroke-dasharray:none"
       id="rect2943-84"
       width="92.85714"
       height="36.42857"
       x="64.642868"
       y="567.36218"
       inkscape:export-filename="/home/roa/Desktop/QAnimDrawer/doc/joins1.png"
       inkscape:export-xdpi="90"
       inkscape:export-ydpi="90" />
    <rect
       style="fill:#4c00a1;fill-opacity:1;stroke:#0d905a;stroke-width:2.54500008;stroke-miterlimit:4;stroke-opacity:1;stroke-dasharray:none"
       id="rect2943-3-8"
       width="92.85714"
       height="36.42857"
       x="179.99998"
       y="567.7193"
       inkscape:export-filename="/home/roa/Desktop/QAnimDrawer/doc/joins1.png"
       inkscape:export-xdpi="90"
       inkscape:export-ydpi="90" />
    <path
       style="fill:#4c00a1;fill-opacity:1;stroke:#0d905a;stroke-width:2.54500008;stroke-miterlimit:4;stroke-opacity:1;stroke-dasharray:none"
       d="m 321.67242,566.25254 0,36.4375 91.28125,0 c 0.80819,0.10964 1.63049,0.1875 2.46875,0.1875 10.05915,0 18.21875,-8.1596 18.21875,-18.21875 0,-10.05915 -8.1596,-18.21875 -18.21875,-18.21875 -0.30363,0 -0.60626,0.0166 -0.90625,0.0312 l 0,-0.21875 -92.84375,0 z"
       id="rect2943-84-2"
       inkscape:export-filename="/home/roa/Desktop/QAnimDrawer/doc/joins2.png"
       inkscape:export-xdpi="90"
       inkscape:export-ydpi="90" />
    <path
       style="fill:#4c00a1;fill-opacity:1;stroke:#0d905a;stroke-width:2.54500008;stroke-miterlimit:4;stroke-opacity:1;stroke-dasharray:none"
       d="m 554.99973,565.33893 0,36.4375 -91.28125,0 c -0.80819,0.10964 -1.63049,0.1875 -2.46875,0.1875 -10.05915,0 -18.21875,-8.1596 -18.21875,-18.21875 0,-10.05915 8.1596,-18.21875 18.21875,-18.21875 0.30363,0 0.60626,0.0166 0.90625,0.0312 l 0,-0.21875 92.84375,0 z"
       id="rect2943-84-2-5"
       inkscape:export-filename="/home/roa/Desktop/QAnimDrawer/doc/joins2.png"
       inkscape:export-xdpi="90"
       inkscape:export-ydpi="90" />
    <path
       style="fill:#4c00a1;fill-opacity:1;stroke:#0d905a;stroke-width:2.54500008;stroke-miterlimit:4;stroke-opacity:1;stroke-dasharray:none"
       d="m 341.72896,622.53016 0,36.4375 91.28125,0 c 0.80819,0.10964 1.63049,0.1875 2.46875,0.1875 10.05915,0 18.21875,-8.1596 18.21875,-18.21875 0,-10.05915 -8.1596,-18.21875 -18.21875,-18.21875 -0.30363,0 -0.60626,0.0166 -0.90625,0.0312 l 0,-0.21875 -92.84375,0 z"
       id="rect2943-84-2-3"
       inkscape:export-filename="/home/roa/Desktop/QAnimDrawer/doc/joins2.png"
       inkscape:export-xdpi="90"
       inkscape:export-ydpi="90" />
    <path
       style="fill:#4c00a1;fill-opacity:1;stroke:#0d905a;stroke-width:2.54500008;stroke-miterlimit:4;stroke-opacity:1;stroke-dasharray:none"
       d="m 531.61971,622.37416 0,36.4375 -91.28125,0 c -0.80819,0.10964 -1.63049,0.1875 -2.46875,0.1875 -10.05915,0 -18.21875,-8.1596 -18.21875,-18.21875 0,-10.05915 8.1596,-18.21875 18.21875,-18.21875 0.30363,0 0.60626,0.0166 0.90625,0.0312 l 0,-0.21875 92.84375,0 z"
       id="rect2943-84-2-5-9"
       inkscape:export-filename="/home/roa/Desktop/QAnimDrawer/doc/joins2.png"
       inkscape:export-xdpi="90"
       inkscape:export-ydpi="90" />
    <path
       style="fill:#4c00a1;fill-opacity:1;stroke:#0d905a;stroke-width:2.54500008;stroke-miterlimit:4;stroke-opacity:1;stroke-dasharray:none"
       d="m 346.6646,732.19979 0,36.4375 91.28125,0 c 0.80819,0.10964 1.63049,0.1875 2.46875,0.1875 10.05915,0 18.21875,-8.1596 18.21875,-18.21875 0,-10.05915 -8.1596,-18.21875 -18.21875,-18.21875 -0.30363,0 -0.60626,0.0166 -0.90625,0.0312 l 0,-0.21875 -92.84375,0 z"
       id="rect2943-84-2-3-4"
       inkscape:export-filename="/home/roa/Desktop/QAnimDrawer/doc/joins2.png"
       inkscape:export-xdpi="90"
       inkscape:export-ydpi="90" />
    <path
       style="fill:#4c00a1;fill-opacity:1;stroke:#0d905a;stroke-width:2.54500008;stroke-miterlimit:4;stroke-opacity:1;stroke-dasharray:none"
       d="m 503.66218,675.67059 22.90964,28.33443 -70.98187,57.39199 c -0.55953,0.5934 -1.15001,1.17096 -1.80186,1.698 -7.82216,6.32457 -19.29746,5.10978 -25.62203,-2.71239 -6.32457,-7.82217 -5.10978,-19.29747 2.71239,-25.62204 0.23611,-0.1909 0.48188,-0.36827 0.72433,-0.54553 l -0.13753,-0.1701 72.1969,-58.3744 z"
       id="rect2943-84-2-5-9-9"
       inkscape:transform-center-x="-34.926164"
       inkscape:transform-center-y="-28.94812"
       inkscape:export-filename="/home/roa/Desktop/QAnimDrawer/doc/joins2.png"
       inkscape:export-xdpi="90"
       inkscape:export-ydpi="90" />
  </g>
</svg>
